# xmcd
#
# Track frame offsets: 
#        150
#        5244
#        33984
#        51821
#        70620
#        93723
#        114289
#        135321
#        155667
#        181544
#        208746
#        234481
#        256495
#        274757
#        294894
#
# Disc length: 4242 seconds
#
# Revision: 0
# Processed by: cddbd v1.4PL0 Copyright (c) Steve Scherf et al.
# Submitted via: ExactAudioCopy v0.90b3
#
DISCID=cb10900f
DTITLE=NANA - The Best Of
DYEAR=1997
DGENRE=Rap
TTITLE0=Intro
TTITLE1=Lonely
TTITLE2=Let It Rain
TTITLE3=1,2,3 Are You Ready
TTITLE4=Father
TTITLE5=Do You Really Think You Know Me ?
TTITLE6=Remember The Time
TTITLE7=Dreams
TTITLE8=One Second/feat. Alex Prince
TTITLE9=Darkman
TTITLE10=Why/feat. Jonestown
TTITLE11=My Peeps
TTITLE12=Too Much Heaven
TTITLE13=You
TTITLE14=Pocket Full Of Memories
EXTD=
EXTT0=
EXTT1=
EXTT2=
EXTT3=
EXTT4=
EXTT5=
EXTT6=
EXTT7=
EXTT8=
EXTT9=
EXTT10=
EXTT11=
EXTT12=
EXTT13=
EXTT14=
PLAYORDER=
